<svg width="413" height="96" viewBox="0 0 413 96" fill="none" xmlns="http://www.w3.org/2000/svg">
<path d="M-0.00178099 95.1055V31.6175C-0.00178099 26.7535 1.15022 22.3588 3.45422 18.4335C5.84355 14.5081 9.00089 11.3935 12.9262 9.08946C16.9369 6.70013 21.3316 5.50546 26.1102 5.50546H58.4942V21.6335H28.1582C25.4276 21.6335 23.0809 22.6148 21.1182 24.5775C19.2409 26.5401 18.3022 28.8868 18.3022 31.6175V46.0815H54.1422V62.2095H18.3022V95.1055H-0.00178099ZM71.2692 95.1055V29.8255H88.9332V95.1055H71.2692ZM80.1012 22.0175C77.1146 22.0175 74.5119 20.9508 72.2932 18.8175C70.1599 16.5988 69.0932 13.9961 69.0932 11.0095C69.0932 8.0228 70.1599 5.4628 72.2932 3.32947C74.5119 1.1108 77.1146 0.00146484 80.1012 0.00146484C83.0879 0.00146484 85.6479 1.1108 87.7812 3.32947C89.9999 5.4628 91.1092 8.0228 91.1092 11.0095C91.1092 13.9961 89.9999 16.5988 87.7812 18.8175C85.6479 20.9508 83.0879 22.0175 80.1012 22.0175ZM109.746 95.1055V44.8015H98.3542V29.8255H109.746V20.2255C109.746 14.4228 111.368 9.90013 114.61 6.65746C117.938 3.32947 122.504 1.66547 128.306 1.66547H146.866V16.6415H131.378C130.269 16.6415 129.288 17.0255 128.434 17.7935C127.666 18.5615 127.282 19.5428 127.282 20.7375V29.8255H144.05V44.8015H127.282V95.1055H109.746ZM176.55 95.1055C170.748 95.1055 166.182 93.4415 162.854 90.1135C159.612 86.7855 157.99 82.2628 157.99 76.5455V13.4415H175.526V76.0335C175.526 77.1428 175.91 78.1241 176.678 78.9775C177.532 79.7455 178.513 80.1295 179.622 80.1295H193.83V95.1055H176.55ZM146.854 44.8015V29.8255H193.83V44.8015H146.854ZM237.665 95.1055C230.241 95.1055 223.756 93.6975 218.209 90.8815C212.748 87.9801 208.481 84.0548 205.409 79.1055C202.423 74.1561 200.929 68.6095 200.929 62.4655C200.929 55.5535 202.337 49.5375 205.153 44.4175C207.969 39.2975 211.809 35.3295 216.673 32.5135C221.537 29.6975 227.041 28.2895 233.185 28.2895C240.524 28.2895 246.455 29.8255 250.977 32.8975C255.585 35.9695 258.956 40.1081 261.089 45.3135C263.223 50.4335 264.289 56.1508 264.289 62.4655C264.289 63.3188 264.247 64.3428 264.161 65.5375C264.076 66.6468 263.948 67.5001 263.777 68.0975H219.617C220.3 70.7428 221.452 72.9615 223.073 74.7535C224.78 76.5455 226.871 77.9108 229.345 78.8495C231.905 79.7028 234.764 80.1295 237.921 80.1295H256.097V95.1055H237.665ZM219.489 56.3215H246.753C246.583 54.7001 246.284 53.2068 245.857 51.8415C245.431 50.3908 244.833 49.1108 244.065 48.0015C243.297 46.8921 242.401 45.9535 241.377 45.1855C240.353 44.4175 239.159 43.8201 237.793 43.3935C236.428 42.9668 234.935 42.7535 233.313 42.7535C231.18 42.7535 229.26 43.1375 227.553 43.9055C225.932 44.6735 224.567 45.6975 223.457 46.9775C222.348 48.2575 221.452 49.7081 220.769 51.3295C220.172 52.9508 219.745 54.6148 219.489 56.3215ZM309.54 95.1055C302.116 95.1055 295.631 93.6975 290.084 90.8815C284.623 87.9801 280.356 84.0548 277.284 79.1055C274.298 74.1561 272.804 68.6095 272.804 62.4655C272.804 55.5535 274.212 49.5375 277.028 44.4175C279.844 39.2975 283.684 35.3295 288.548 32.5135C293.412 29.6975 298.916 28.2895 305.06 28.2895C312.399 28.2895 318.33 29.8255 322.852 32.8975C327.46 35.9695 330.831 40.1081 332.964 45.3135C335.098 50.4335 336.164 56.1508 336.164 62.4655C336.164 63.3188 336.122 64.3428 336.036 65.5375C335.951 66.6468 335.823 67.5001 335.652 68.0975H291.492C292.175 70.7428 293.327 72.9615 294.948 74.7535C296.655 76.5455 298.746 77.9108 301.22 78.8495C303.78 79.7028 306.639 80.1295 309.796 80.1295H327.972V95.1055H309.54ZM291.364 56.3215H318.628C318.458 54.7001 318.159 53.2068 317.732 51.8415C317.306 50.3908 316.708 49.1108 315.94 48.0015C315.172 46.8921 314.276 45.9535 313.252 45.1855C312.228 44.4175 311.034 43.8201 309.668 43.3935C308.303 42.9668 306.81 42.7535 305.188 42.7535C303.055 42.7535 301.135 43.1375 299.428 43.9055C297.807 44.6735 296.442 45.6975 295.332 46.9775C294.223 48.2575 293.327 49.7081 292.644 51.3295C292.047 52.9508 291.62 54.6148 291.364 56.3215ZM348.519 95.1055V57.6015C348.519 52.2255 349.757 47.3188 352.231 42.8815C354.791 38.4441 358.461 34.9028 363.239 32.2575C368.018 29.6121 373.735 28.2895 380.391 28.2895C387.133 28.2895 392.85 29.6121 397.543 32.2575C402.322 34.9028 405.949 38.4441 408.423 42.8815C410.983 47.3188 412.263 52.2255 412.263 57.6015V95.1055H394.727V57.6015C394.727 54.9561 394.087 52.5668 392.807 50.4335C391.527 48.2148 389.778 46.4655 387.559 45.1855C385.426 43.9055 383.037 43.2655 380.391 43.2655C377.746 43.2655 375.314 43.9055 373.095 45.1855C370.962 46.4655 369.255 48.2148 367.975 50.4335C366.695 52.5668 366.055 54.9561 366.055 57.6015V95.1055H348.519Z" fill="white"/>
</svg>
