<svg width="117" height="119" viewBox="0 0 117 119" fill="none" xmlns="http://www.w3.org/2000/svg">
<path d="M114 0C115.657 0 117 1.34315 117 3V93.2813C117 94.9381 115.657 96.2812 114 96.2812H94.357C93.2853 96.2812 92.2949 96.853 91.759 97.7812L80.4734 117.328C79.9375 118.256 78.9472 118.828 77.8754 118.828H3C1.34314 118.828 0 117.485 0 115.828V26.1562C0 24.4994 1.34315 23.1562 3 23.1562H23.8617C24.9335 23.1562 25.9239 22.5844 26.4598 21.6562L38.0969 1.50001C38.6328 0.571803 39.6231 0 40.6949 0H114ZM39.4042 86.7295C39.7556 88.0411 40.9442 88.9531 42.302 88.9531H90.5766C92.5534 88.9531 93.9898 87.0745 93.4717 85.1668L78.8825 31.4481C78.5276 30.1414 77.3414 29.2344 75.9873 29.2344H27.9096C25.937 29.2344 24.5013 31.1054 25.0118 33.0108L39.4042 86.7295Z" fill="white"/>
</svg>
