<svg width="570" height="119" viewBox="0 0 570 119" fill="none" xmlns="http://www.w3.org/2000/svg">
<path d="M149.424 109.234V45.7464C149.424 40.8824 150.576 36.4877 152.88 32.5624C155.269 28.637 158.427 25.5224 162.352 23.2184C166.363 20.829 170.757 19.6344 175.536 19.6344H207.92V35.7624H177.584C174.853 35.7624 172.507 36.7437 170.544 38.7064C168.667 40.669 167.728 43.0157 167.728 45.7464V60.2104H203.568V76.3384H167.728V109.234H149.424ZM220.695 109.234V43.9544H238.359V109.234H220.695ZM229.527 36.1464C226.54 36.1464 223.938 35.0797 221.719 32.9464C219.586 30.7277 218.519 28.125 218.519 25.1384C218.519 22.1517 219.586 19.5917 221.719 17.4584C223.938 15.2397 226.54 14.1304 229.527 14.1304C232.514 14.1304 235.074 15.2397 237.207 17.4584C239.426 19.5917 240.535 22.1517 240.535 25.1384C240.535 28.125 239.426 30.7277 237.207 32.9464C235.074 35.0797 232.514 36.1464 229.527 36.1464ZM259.172 109.234V58.9304H247.78V43.9544H259.172V34.3544C259.172 28.5517 260.793 24.029 264.036 20.7864C267.364 17.4584 271.929 15.7944 277.732 15.7944H296.292V30.7704H280.804C279.695 30.7704 278.713 31.1544 277.86 31.9224C277.092 32.6904 276.708 33.6717 276.708 34.8664V43.9544H293.476V58.9304H276.708V109.234H259.172ZM325.976 109.234C320.173 109.234 315.608 107.57 312.28 104.242C309.037 100.914 307.416 96.3917 307.416 90.6744V27.5704H324.952V90.1624C324.952 91.2717 325.336 92.253 326.104 93.1064C326.957 93.8744 327.939 94.2584 329.048 94.2584H343.256V109.234H325.976ZM296.28 58.9304V43.9544H343.256V58.9304H296.28ZM387.091 109.234C379.667 109.234 373.182 107.826 367.635 105.01C362.174 102.109 357.907 98.1837 354.835 93.2344C351.848 88.285 350.355 82.7384 350.355 76.5944C350.355 69.6824 351.763 63.6664 354.579 58.5464C357.395 53.4264 361.235 49.4584 366.099 46.6424C370.963 43.8264 376.467 42.4184 382.611 42.4184C389.95 42.4184 395.88 43.9544 400.403 47.0264C405.011 50.0984 408.382 54.237 410.515 59.4424C412.648 64.5624 413.715 70.2797 413.715 76.5944C413.715 77.4477 413.672 78.4717 413.587 79.6664C413.502 80.7757 413.374 81.629 413.203 82.2264H369.043C369.726 84.8717 370.878 87.0904 372.499 88.8824C374.206 90.6744 376.296 92.0397 378.771 92.9784C381.331 93.8317 384.19 94.2584 387.347 94.2584H405.523V109.234H387.091ZM368.915 70.4504H396.179C396.008 68.829 395.71 67.3357 395.283 65.9704C394.856 64.5197 394.259 63.2397 393.491 62.1304C392.723 61.021 391.827 60.0824 390.803 59.3144C389.779 58.5464 388.584 57.949 387.219 57.5224C385.854 57.0957 384.36 56.8824 382.739 56.8824C380.606 56.8824 378.686 57.2664 376.979 58.0344C375.358 58.8024 373.992 59.8264 372.883 61.1064C371.774 62.3864 370.878 63.837 370.195 65.4584C369.598 67.0797 369.171 68.7437 368.915 70.4504ZM458.966 109.234C451.542 109.234 445.057 107.826 439.51 105.01C434.049 102.109 429.782 98.1837 426.71 93.2344C423.723 88.285 422.23 82.7384 422.23 76.5944C422.23 69.6824 423.638 63.6664 426.454 58.5464C429.27 53.4264 433.11 49.4584 437.974 46.6424C442.838 43.8264 448.342 42.4184 454.486 42.4184C461.825 42.4184 467.755 43.9544 472.278 47.0264C476.886 50.0984 480.257 54.237 482.39 59.4424C484.523 64.5624 485.59 70.2797 485.59 76.5944C485.59 77.4477 485.547 78.4717 485.462 79.6664C485.377 80.7757 485.249 81.629 485.078 82.2264H440.918C441.601 84.8717 442.753 87.0904 444.374 88.8824C446.081 90.6744 448.171 92.0397 450.646 92.9784C453.206 93.8317 456.065 94.2584 459.222 94.2584H477.398V109.234H458.966ZM440.79 70.4504H468.054C467.883 68.829 467.585 67.3357 467.158 65.9704C466.731 64.5197 466.134 63.2397 465.366 62.1304C464.598 61.021 463.702 60.0824 462.678 59.3144C461.654 58.5464 460.459 57.949 459.094 57.5224C457.729 57.0957 456.235 56.8824 454.614 56.8824C452.481 56.8824 450.561 57.2664 448.854 58.0344C447.233 58.8024 445.867 59.8264 444.758 61.1064C443.649 62.3864 442.753 63.837 442.07 65.4584C441.473 67.0797 441.046 68.7437 440.79 70.4504ZM497.945 109.234V71.7304C497.945 66.3544 499.182 61.4477 501.657 57.0104C504.217 52.573 507.886 49.0317 512.665 46.3864C517.444 43.741 523.161 42.4184 529.817 42.4184C536.558 42.4184 542.276 43.741 546.969 46.3864C551.748 49.0317 555.374 52.573 557.849 57.0104C560.409 61.4477 561.689 66.3544 561.689 71.7304V109.234H544.153V71.7304C544.153 69.085 543.513 66.6957 542.233 64.5624C540.953 62.3437 539.204 60.5944 536.985 59.3144C534.852 58.0344 532.462 57.3944 529.817 57.3944C527.172 57.3944 524.74 58.0344 522.521 59.3144C520.388 60.5944 518.681 62.3437 517.401 64.5624C516.121 66.6957 515.481 69.085 515.481 71.7304V109.234H497.945Z" fill="white"/>
<path d="M114 0C115.657 0 117 1.34315 117 3V93.2813C117 94.9381 115.657 96.2812 114 96.2812H94.357C93.2853 96.2812 92.2949 96.853 91.759 97.7812L80.4734 117.328C79.9375 118.256 78.9472 118.828 77.8754 118.828H3C1.34314 118.828 0 117.485 0 115.828V26.1562C0 24.4994 1.34315 23.1562 3 23.1562H23.8617C24.9335 23.1562 25.9239 22.5844 26.4598 21.6562L38.0969 1.50001C38.6328 0.571803 39.6231 0 40.6949 0H114ZM39.4042 86.7295C39.7556 88.0411 40.9442 88.9531 42.302 88.9531H90.5766C92.5534 88.9531 93.9898 87.0745 93.4717 85.1668L78.8825 31.4481C78.5276 30.1414 77.3414 29.2344 75.9873 29.2344H27.9096C25.937 29.2344 24.5013 31.1054 25.0118 33.0108L39.4042 86.7295Z" fill="white"/>
</svg>
